<?xml version="1.0" standalone="no"?>
<!DOCTYPE svg PUBLIC "-//W3C//DTD SVG 20010904//EN"
 "http://www.w3.org/TR/2001/REC-SVG-20010904/DTD/svg10.dtd">
<svg version="1.0" xmlns="http://www.w3.org/2000/svg"
 width="2000.000000pt" height="2000.000000pt" viewBox="0 0 2000.000000 2000.000000"
 preserveAspectRatio="xMidYMid meet">
<metadata>
Created by potrace 1.11, written by Peter Selinger 2001-2013
</metadata>
<g transform="translate(0.000000,2000.000000) scale(0.100000,-0.100000)"
fill="#000000" stroke="none">
<path d="M12499 17666 c-2 -2 -51 -6 -109 -10 -58 -4 -118 -9 -135 -11 -16 -2
-61 -6 -100 -10 -38 -3 -77 -8 -85 -10 -8 -2 -35 -7 -60 -10 -25 -3 -67 -10
-95 -15 -27 -5 -66 -12 -85 -15 -216 -35 -583 -142 -759 -222 -139 -63 -331
-160 -366 -186 -5 -4 -46 -30 -90 -58 -68 -44 -250 -173 -265 -189 -3 -3 -39
-34 -80 -70 -255 -222 -506 -533 -695 -860 -59 -104 -174 -332 -210 -420 -15
-36 -33 -78 -40 -95 -24 -52 -112 -297 -136 -375 -12 -41 -24 -79 -26 -85 -20
-67 -84 -297 -88 -319 -3 -16 -8 -32 -10 -36 -2 -4 -7 -22 -10 -41 -3 -19 -12
-59 -20 -89 -8 -30 -16 -66 -19 -80 -2 -14 -14 -72 -25 -130 -11 -58 -23 -123
-26 -145 -4 -22 -8 -47 -10 -55 -2 -8 -7 -28 -10 -45 -6 -36 -13 -71 -21 -107
l-6 -28 -808 0 -808 0 -6 -27 c-4 -16 -8 -37 -10 -48 -3 -11 -12 -48 -21 -82
-9 -35 -18 -71 -20 -80 -2 -10 -13 -56 -25 -103 -12 -47 -23 -92 -25 -100 -2
-8 -33 -136 -70 -285 -36 -148 -68 -277 -70 -286 -6 -28 -54 -225 -111 -452
-30 -119 -54 -222 -54 -227 0 -6 113 -10 311 -10 306 0 310 0 305 -20 -3 -11
-8 -29 -11 -39 -3 -11 -8 -28 -10 -38 -2 -10 -20 -83 -40 -163 -20 -80 -38
-154 -41 -165 -2 -11 -6 -32 -10 -47 l-6 -28 310 0 309 0 -7 -37 c-4 -21 -31
-130 -59 -241 -28 -112 -51 -208 -51 -213 0 -5 102 -9 241 -9 224 0 240 -1
235 -17 -4 -14 -161 -792 -180 -893 -3 -14 -75 -374 -161 -800 -86 -426 -159
-784 -161 -795 -2 -11 -8 -42 -14 -70 -12 -59 -19 -91 -25 -125 -2 -14 -32
-160 -65 -325 -34 -165 -64 -313 -66 -330 -3 -16 -17 -84 -31 -150 -14 -66
-27 -131 -30 -145 -2 -14 -16 -81 -29 -150 -14 -69 -28 -136 -30 -150 -3 -13
-12 -56 -20 -95 -8 -38 -17 -86 -20 -105 -3 -19 -12 -62 -19 -95 -8 -33 -16
-73 -19 -90 -6 -32 -13 -68 -20 -100 -2 -11 -14 -69 -26 -130 -89 -462 -190
-727 -366 -961 -223 -296 -552 -479 -939 -521 -90 -10 -440 -9 -525 1 -36 4
-80 9 -99 11 -81 10 -123 18 -236 45 -171 42 -248 64 -344 99 -47 17 -86 29
-87 28 -1 -1 -35 -101 -74 -222 -40 -121 -83 -250 -96 -288 -13 -37 -23 -69
-23 -72 0 -3 -17 -56 -37 -118 -21 -61 -39 -114 -39 -117 -1 -3 -20 -63 -44
-135 -261 -794 -255 -775 -235 -790 11 -8 30 -17 44 -20 14 -4 41 -13 60 -22
63 -27 74 -32 149 -58 40 -14 128 -41 194 -60 67 -20 122 -37 124 -39 2 -1
-17 -65 -42 -142 -25 -76 -45 -142 -45 -145 0 -18 283 -124 479 -180 57 -16
106 -30 108 -32 1 -2 -17 -66 -42 -142 -25 -76 -45 -141 -45 -145 0 -4 35 -22
78 -40 42 -18 91 -38 107 -45 78 -33 368 -120 508 -151 9 -2 27 -6 40 -9 43
-11 303 -55 352 -61 28 -3 64 -7 80 -9 204 -27 837 -27 982 -1 10 2 49 7 87
11 78 8 87 9 206 31 47 9 96 18 110 20 14 3 33 7 42 10 10 3 30 7 44 10 25 5
85 20 169 44 237 68 537 198 725 314 331 205 579 434 873 806 32 41 180 265
226 344 69 118 179 337 236 472 25 60 50 118 55 129 5 11 18 47 30 80 11 33
23 67 27 75 3 8 7 20 9 25 1 6 16 48 32 95 70 199 164 563 218 850 3 14 22
113 44 220 21 107 42 211 45 230 3 19 12 62 20 95 7 33 16 76 19 95 3 19 28
145 55 280 27 135 52 263 57 285 4 22 8 45 9 50 5 19 44 220 49 245 3 14 14
68 24 120 19 91 23 112 37 190 4 19 16 78 27 130 10 52 22 106 24 120 4 21 97
487 110 554 2 11 6 32 9 46 3 14 7 35 9 48 61 301 79 390 82 407 2 11 26 133
53 270 28 138 52 261 54 275 3 14 26 126 51 250 25 124 47 236 50 250 2 14 27
138 54 275 28 138 53 261 55 275 3 14 13 63 22 110 9 47 18 96 21 110 3 14 7
32 9 40 2 8 7 31 10 50 3 19 8 42 10 50 2 8 7 30 10 49 3 19 20 103 36 185 17
83 33 164 35 180 2 16 9 46 14 67 l11 39 1374 0 1375 0 6 28 c11 50 35 147 44
177 4 17 13 55 20 85 6 30 15 66 20 80 7 21 25 96 55 226 2 11 12 48 20 84 9
36 18 72 20 80 1 8 8 35 15 60 7 25 13 52 15 60 2 8 8 35 14 60 7 25 14 54 16
65 5 23 70 286 129 528 l42 167 -314 0 c-172 0 -311 4 -308 8 3 5 7 19 10 33
2 13 25 110 51 214 26 105 48 198 50 208 2 9 7 22 10 27 4 7 -102 10 -308 10
l-314 0 54 218 c30 119 57 232 60 250 l6 32 -802 0 -801 0 21 53 c28 71 113
241 152 303 208 329 488 525 822 574 44 6 91 13 105 16 111 19 579 25 735 11
127 -13 144 -15 244 -33 28 -6 149 -33 171 -38 99 -27 142 -40 245 -76 66 -23
144 -52 172 -66 29 -13 64 -26 78 -30 14 -3 28 -10 31 -15 14 -23 33 -3 64 69
18 42 44 100 56 127 12 28 41 95 64 150 23 55 51 120 62 145 38 85 47 105 89
205 23 55 50 118 59 140 10 22 33 74 50 115 18 41 38 89 45 105 7 17 22 50 33
75 85 193 223 523 219 526 -20 21 -374 149 -553 201 l-62 18 59 135 c32 74 59
138 59 141 0 7 -245 109 -264 109 -8 0 -17 4 -20 8 -3 5 -79 31 -169 57 l-165
49 20 45 c11 25 26 59 33 76 29 65 66 157 63 160 -5 4 -145 64 -218 92 -109
43 -329 111 -410 128 -8 2 -42 10 -75 18 -33 8 -76 18 -95 21 -19 3 -46 8 -60
11 -14 3 -52 10 -85 15 -33 6 -71 12 -85 14 -23 4 -121 17 -240 31 -25 3 -79
8 -120 11 -41 3 -88 7 -105 10 -34 6 -720 15 -726 10z"/>
</g>
</svg>
